<?xml version="1.0" encoding="utf-8"?>
<!-- Generator: Adobe Illustrator 22.0.1, SVG Export Plug-In . SVG Version: 6.00 Build 0)  -->
<svg version="1.1" id="Layer_1" xmlns="http://www.w3.org/2000/svg" xmlns:xlink="http://www.w3.org/1999/xlink" x="0px" y="0px"
	 viewBox="0 0 425.2 425.2" style="enable-background:new 0 0 425.2 425.2;" xml:space="preserve">
<style type="text/css">
	.st0{fill:#FFFFFF;stroke:#256BB1;stroke-width:6;stroke-miterlimit:10;}
	.st1{fill:#256BB1;}
	.st2{fill:none;}
	.st3{fill:#FEFEFE;}
	.st4{fill:#C32328;}
</style>
<g id="Layer_x0020_1">
	<path class="st0" d="M71.7,21.3h281.8c27.7,0,50.4,22.7,50.4,50.4v281.8c0,27.7-22.7,50.4-50.4,50.4H71.7
		c-27.7,0-50.4-22.7-50.4-50.4V71.7C21.3,44,44,21.3,71.7,21.3z"/>
	<path class="st1" d="M76.3,36.6h272.6c21.9,0,39.7,17.8,39.7,39.7v272.6c0,21.9-17.8,39.7-39.7,39.7H76.3
		c-21.9,0-39.7-17.8-39.7-39.7V76.3C36.6,54.4,54.4,36.6,76.3,36.6z"/>
	<polygon class="st2" points="0,0 425.2,0 425.2,425.2 0,425.2 	"/>
	<path class="st3" d="M212.6,55c87,0,157.6,70.5,157.6,157.5s-70.6,157.6-157.6,157.6S55,299.6,55,212.6S125.6,55,212.6,55z"/>
	<polygon class="st4" points="150.4,173.7 170.2,173.7 170.2,251.3 150.4,251.3 150.4,240.8 114.9,240.8 134.8,221.8 150.4,221.8 
		150.4,201.3 95.4,253.1 95.4,225.7 	"/>
	<polygon class="st4" points="191.9,194.1 175.6,194.1 175.6,173.8 246.7,173.8 225.3,194.1 213.3,194.1 213.3,251.4 191.9,251.4 	
		"/>
	<path class="st4" d="M251.7,192.5h39.7l19.7-18.7h-59.4L232,192.5v58.9h45.2c2.8,0,5.5-0.7,8-2c2.5-1.3,4.7-3.1,6.5-5.4
		c1.9-2.3,3.4-4.8,4.5-7.7c1-2.9,1.6-6,1.6-9.2c0-3.6-0.5-6.9-1.6-9.8c-1-2.9-2.5-5.4-4.4-7.5c-1.9-2.1-4.1-3.7-6.6-4.8
		c-2.5-1.1-5.2-1.7-8.1-1.7h-21.1v18.7h17.2c1.6,0,2.7,0.5,3.6,1.5c0.9,1,1.3,2.2,1.3,3.9c0,1-0.2,2-0.6,2.8
		c-0.4,0.8-0.9,1.4-1.7,1.9c-0.7,0.5-1.6,0.7-2.6,0.7h-21.5V192.5z"/>
	<path class="st1" d="M314.7,117.7l-14.3,40.2c-28.6-40.6-81.8-29-147.8,9.8C198.3,121.3,251.2,100.7,314.7,117.7z"/>
	<path class="st1" d="M110.5,307.5l14.3-40.2c28.6,40.6,81.8,29,147.8-9.8C226.9,303.9,174,324.5,110.5,307.5z"/>
	<path class="st1" d="M303.2,105.8c-101.3-95.6-279.5,17.5-219.9,159C87,159.3,221,85.1,303.2,105.8z"/>
	<path class="st1" d="M122,319.4c101.3,95.6,279.5-17.5,219.9-159C338.2,265.9,204.2,340.1,122,319.4z"/>
</g>
</svg>
