<?xml version="1.0" encoding="utf-8"?>
<!-- Generator: Adobe Illustrator 22.0.1, SVG Export Plug-In . SVG Version: 6.00 Build 0)  -->
<svg version="1.1" id="Layer_1" xmlns="http://www.w3.org/2000/svg" xmlns:xlink="http://www.w3.org/1999/xlink" x="0px" y="0px"
	 viewBox="0 0 64 64" style="enable-background:new 0 0 64 64;" xml:space="preserve">
<style type="text/css">
	.st0{fill:#256BB1;}
	.st1{fill:#FFFFFF;}
</style>
<path class="st0" d="M58,64H6c-3.3,0-6-2.7-6-6V6c0-3.3,2.7-6,6-6h52c3.3,0,6,2.7,6,6v52C64,61.3,61.3,64,58,64z"/>
<path class="st1" d="M2,33.9v7.7L17.6,27v5.8h-4.4l-5.6,5.4h10v3h5.6v-22h-5.6L2,33.9z M24.7,19.2v5.7h4.6v16.2h6V24.9h3.4l6-5.7
	H24.7z M57.5,29.4c-0.5-0.6-1.2-1.1-1.9-1.4c-0.7-0.3-1.5-0.5-2.3-0.5h-6v5.3h4.9c0.4,0,0.8,0.2,1,0.4c0.2,0.3,0.4,0.6,0.4,1.1
	c0,0.3-0.1,0.6-0.2,0.8c-0.1,0.2-0.3,0.4-0.5,0.5c-0.2,0.1-0.5,0.2-0.7,0.2h-6.1V24.5h11.2l5.6-5.3H46.2l-5.6,5.3v16.7h12.8
	c0.8,0,1.6-0.2,2.3-0.6c0.7-0.4,1.3-0.9,1.9-1.5c0.5-0.6,1-1.4,1.3-2.2c0.3-0.8,0.5-1.7,0.5-2.6c0-1-0.2-1.9-0.5-2.8
	C58.5,30.7,58.1,30,57.5,29.4z"/>
</svg>
